<!DOCTYPE svg PUBLIC "-//W3C//DTD SVG 1.1//EN" "http://www.w3.org/Graphics/SVG/1.1/DTD/svg11.dtd">

<!-- Uploaded to: SVG Repo, www.svgrepo.com, Transformed by: SVG Repo Mixer Tools -->
<svg height="150px" width="150px" version="1.1" id="Capa_1" xmlns="http://www.w3.org/2000/svg" xmlns:xlink="http://www.w3.org/1999/xlink" viewBox="-64 -64 528.00 528.00" xml:space="preserve" fill="#61206a" stroke="#61206a" stroke-width="0.004">

<g id="SVGRepo_bgCarrier" stroke-width="0"/>

<g id="SVGRepo_tracerCarrier" stroke-linecap="round" stroke-linejoin="round" stroke="#c14444" stroke-width="80"> <g id="XMLID_1616_"> <path id="XMLID_1632_" style="fill:#50412E;" d="M39.996,140H0v120h39.996C27.441,243.287,20,222.513,20,200 S27.441,156.713,39.996,140z"/> <path id="XMLID_1633_" style="fill:#50412E;" d="M360.004,140C372.559,156.713,380,177.487,380,200s-7.441,43.287-19.996,60H400 V140H360.004z"/> <path id="XMLID_1634_" style="fill:#78B9EB;" d="M145.581,270H120c-16.758,0-32.154-5.925-44.218-15.781 c-7.844-6.409-14.276-14.479-18.754-23.673C52.53,221.31,50,210.945,50,200c0-38.599,31.401-70,70-70h37.573H200v-30h-80 c-32.716,0-61.76,15.712-80.004,40C27.441,156.713,20,177.487,20,200s7.441,43.287,19.996,60C58.24,284.288,87.284,300,120,300h40 l40-50v-48.023L145.581,270z"/> <path id="XMLID_1635_" style="fill:#5A8BB0;" d="M360.004,140c-18.244-24.288-47.288-40-80.004-40h-80v30h80 c10.945,0,21.309,2.529,30.545,7.027c9.193,4.479,17.264,10.91,23.672,18.754C344.074,167.845,350,183.242,350,200 c0,38.599-31.401,70-70,70h-25.581l-15.298-19.122l-18.855-23.569L200,201.977V250l40,50h40c32.716,0,61.76-15.712,80.004-40 C372.559,243.287,380,222.513,380,200S372.559,156.713,360.004,140z"/> <path id="XMLID_1636_" style="fill:#FFDA44;" d="M120,130c-38.599,0-70,31.401-70,70c0,10.945,2.53,21.31,7.028,30.546L157.573,130 H120z"/> <path id="XMLID_1637_" style="fill:#FFDA44;" d="M120,270h25.581L200,201.977V130L75.782,254.219 C87.846,264.075,103.242,270,120,270z"/> <path id="XMLID_1638_" style="fill:#FFFFFF;" d="M57.028,230.546c4.478,9.193,10.91,17.264,18.754,23.673L200,130h-42.427 L57.028,230.546z"/> <path id="XMLID_1639_" style="fill:#FF9811;" d="M220.266,227.309l90.279-90.281C301.309,132.529,290.945,130,280,130h-80v71.977 L220.266,227.309z"/> <path id="XMLID_1640_" style="fill:#FF9811;" d="M254.419,270H280c38.599,0,70-31.401,70-70c0-16.758-5.926-32.155-15.783-44.219 l-95.096,95.097L254.419,270z"/> <path id="XMLID_1641_" style="fill:#FFDA44;" d="M239.121,250.878l95.096-95.097c-6.408-7.844-14.478-14.275-23.672-18.754 l-90.279,90.281L239.121,250.878z"/> </g> </g>

<g id="SVGRepo_iconCarrier"> <g id="XMLID_1616_"> <path id="XMLID_1632_" style="fill:#50412E;" d="M39.996,140H0v120h39.996C27.441,243.287,20,222.513,20,200 S27.441,156.713,39.996,140z"/> <path id="XMLID_1633_" style="fill:#50412E;" d="M360.004,140C372.559,156.713,380,177.487,380,200s-7.441,43.287-19.996,60H400 V140H360.004z"/> <path id="XMLID_1634_" style="fill:#78B9EB;" d="M145.581,270H120c-16.758,0-32.154-5.925-44.218-15.781 c-7.844-6.409-14.276-14.479-18.754-23.673C52.53,221.31,50,210.945,50,200c0-38.599,31.401-70,70-70h37.573H200v-30h-80 c-32.716,0-61.76,15.712-80.004,40C27.441,156.713,20,177.487,20,200s7.441,43.287,19.996,60C58.24,284.288,87.284,300,120,300h40 l40-50v-48.023L145.581,270z"/> <path id="XMLID_1635_" style="fill:#5A8BB0;" d="M360.004,140c-18.244-24.288-47.288-40-80.004-40h-80v30h80 c10.945,0,21.309,2.529,30.545,7.027c9.193,4.479,17.264,10.91,23.672,18.754C344.074,167.845,350,183.242,350,200 c0,38.599-31.401,70-70,70h-25.581l-15.298-19.122l-18.855-23.569L200,201.977V250l40,50h40c32.716,0,61.76-15.712,80.004-40 C372.559,243.287,380,222.513,380,200S372.559,156.713,360.004,140z"/> <path id="XMLID_1636_" style="fill:#FFDA44;" d="M120,130c-38.599,0-70,31.401-70,70c0,10.945,2.53,21.31,7.028,30.546L157.573,130 H120z"/> <path id="XMLID_1637_" style="fill:#FFDA44;" d="M120,270h25.581L200,201.977V130L75.782,254.219 C87.846,264.075,103.242,270,120,270z"/> <path id="XMLID_1638_" style="fill:#FFFFFF;" d="M57.028,230.546c4.478,9.193,10.91,17.264,18.754,23.673L200,130h-42.427 L57.028,230.546z"/> <path id="XMLID_1639_" style="fill:#FF9811;" d="M220.266,227.309l90.279-90.281C301.309,132.529,290.945,130,280,130h-80v71.977 L220.266,227.309z"/> <path id="XMLID_1640_" style="fill:#FF9811;" d="M254.419,270H280c38.599,0,70-31.401,70-70c0-16.758-5.926-32.155-15.783-44.219 l-95.096,95.097L254.419,270z"/> <path id="XMLID_1641_" style="fill:#FFDA44;" d="M239.121,250.878l95.096-95.097c-6.408-7.844-14.478-14.275-23.672-18.754 l-90.279,90.281L239.121,250.878z"/> </g> </g>

</svg>