<?xml version="1.0" encoding="iso-8859-1"?>
<!-- Uploaded to: SVG Repo, www.svgrepo.com, Generator: SVG Repo Mixer Tools -->
<svg height="800px" width="800px" version="1.1" id="Layer_1" xmlns="http://www.w3.org/2000/svg" xmlns:xlink="http://www.w3.org/1999/xlink" 
	 viewBox="0 0 512 512" xml:space="preserve">
<path style="fill:#394049;" d="M141.384,249.076l-82.977,80.042c-6.783,6.543-16.875,8.277-25.453,4.372l-12.934-5.887
	c-6.846-3.116-8.153-12.282-2.45-17.187l101.493-87.293L141.384,249.076z"/>
<path style="opacity:0.2;enable-background:new    ;" d="M119.063,223.125l-92.542,79.592c5.681,14.165,11.854,24.697,19.044,32.609
	c4.73-0.645,9.251-2.746,12.841-6.21l82.977-80.042L119.063,223.125z"/>
<path style="fill:#394049;" d="M370.616,249.076l82.977,80.042c6.783,6.543,16.875,8.277,25.453,4.372l12.934-5.887
	c6.846-3.116,8.153-12.282,2.45-17.187l-101.493-87.293L370.616,249.076z"/>
<path style="opacity:0.2;enable-background:new    ;" d="M392.936,223.125l92.542,79.592c-5.681,14.165-11.854,24.697-19.044,32.609
	c-4.73-0.645-9.251-2.746-12.841-6.21l-82.977-80.042L392.936,223.125z"/>
<path style="fill:#394049;" d="M256,222.589c5.884,0,16.402,0.82,16.402,12.233l0,0c0.296,12.038,3.142,25.576,8.553,40.763
	c23.294,65.381,55.525,75.297,109.073,73.459c19.295-0.663,42.63-0.339,58.945-13.854c14.967-12.397,25.655-33.268,35.74-69.785
	c3.445-12.474,5.301-23.771,5.566-33.968h0.001c0.629-7.556,8.645-11.784,14.758-13.928c4.179-1.464,6.963-5.418,6.963-9.846v-18.9
	c0-4.715-3.035-8.896-7.522-10.346c-20.057-6.479-56.694-17.227-123.428-15.466c-54.202,1.431-106.718,10.851-125.05,10.851
	c-18.333,0-70.848-9.42-125.05-10.851c-66.735-1.761-103.371,8.987-123.428,15.466C3.035,179.866,0,184.047,0,188.762v18.9
	c0,4.428,2.784,8.381,6.963,9.846c6.112,2.142,14.129,6.372,14.758,13.928h0.001c0.264,10.197,2.121,21.494,5.566,33.968
	c10.086,36.517,20.775,57.388,35.74,69.785c16.314,13.514,39.649,13.191,58.945,13.854c53.546,1.839,85.778-8.079,109.073-73.459
	c5.411-15.186,8.256-28.725,8.553-40.763l0,0C239.597,223.408,250.117,222.589,256,222.589z"/>
<path style="fill:#536BA5;" d="M130.131,185.449c-51.131-1.863-104.74-0.615-81.143,73.961c21.335,67.427,40.93,65.704,73.961,67.14
	c33.031,1.436,66.155-0.335,86.887-58.523C231.889,206.13,204.005,188.141,130.131,185.449z"/>
<path style="opacity:0.2;enable-background:new    ;" d="M130.131,185.449c-43.305-1.577-88.378-0.916-86.829,44.627
	c1.413-41.241,44.946-41.813,86.829-40.287c56.212,2.047,85.789,12.958,87.007,45.326
	C218.442,199.371,188.785,187.586,130.131,185.449z"/>
<path style="fill:#536BA5;" d="M381.869,185.449c51.131-1.863,104.74-0.615,81.142,73.961c-21.335,67.427-40.93,65.704-73.961,67.14
	c-33.031,1.436-66.155-0.335-86.887-58.523C280.111,206.13,307.995,188.141,381.869,185.449z"/>
<path style="opacity:0.2;enable-background:new    ;" d="M381.869,185.449c43.305-1.577,88.378-0.916,86.829,44.627
	c-1.412-41.241-44.946-41.813-86.829-40.287c-56.213,2.047-85.789,12.958-87.007,45.326
	C293.557,199.371,323.215,187.586,381.869,185.449z"/>
<g>
	<path style="opacity:0.1;fill:#FFFFFF;enable-background:new    ;" d="M130.131,185.449c-51.131-1.863-104.74-0.615-81.143,73.961
		c3.221,10.179,6.402,18.772,9.595,26.048l98.107-98.107C148.624,186.415,139.773,185.8,130.131,185.449z"/>
	<path style="opacity:0.1;fill:#FFFFFF;enable-background:new    ;" d="M456.777,198.154L337.311,317.62
		c15.953,9.54,33.859,9.708,51.738,8.931c33.031-1.436,52.626,0.287,73.961-67.14C473.208,227.187,468.982,208.661,456.777,198.154z
		"/>
</g>
</svg>