<?xml version="1.0" encoding="iso-8859-1"?>
<!-- Uploaded to: SVG Repo, www.svgrepo.com, Generator: SVG Repo Mixer Tools -->
<svg height="150px" width="150px" version="1.1" id="Layer_1" xmlns="http://www.w3.org/2000/svg" xmlns:xlink="http://www.w3.org/1999/xlink" 
	 viewBox="0 0 512.002 512.002" xml:space="preserve">
<path style="fill:#EDA3B2;" d="M159.539,268.174L18.285,342.457c-5.681,2.987-12.471-1.267-12.262-7.682l0.545-16.695
	c0.161-4.929,3.079-9.348,7.549-11.433l133.889-62.434c3.424-1.596,7.493-0.115,9.089,3.308l5.459,11.706
	C164.096,262.538,162.769,266.475,159.539,268.174z"/>
<path style="opacity:0.1;enable-background:new    ;" d="M162.554,259.23l-5.459-11.706c-1.597-3.424-5.666-4.905-9.089-3.308
	L21.66,303.131c3.405,8.63,7.415,16.299,12.064,23.099c1.387,2.027,2.834,3.965,4.333,5.83l121.481-63.885
	C162.769,266.475,164.097,262.538,162.554,259.23z"/>
<path style="fill:#EDA3B2;" d="M352.461,268.174l141.254,74.284c5.681,2.987,12.471-1.267,12.262-7.682l-0.545-16.695
	c-0.161-4.929-3.079-9.348-7.549-11.433l-133.889-62.434c-3.424-1.596-7.493-0.115-9.089,3.308l-5.459,11.706
	C347.903,262.538,349.231,266.475,352.461,268.174z"/>
<path style="opacity:0.1;enable-background:new    ;" d="M349.445,259.23l5.459-11.706c1.597-3.424,5.666-4.905,9.089-3.308
	l126.345,58.916c-3.405,8.63-7.415,16.299-12.064,23.099c-1.386,2.027-2.834,3.965-4.333,5.83L352.46,268.175
	C349.231,266.475,347.903,262.538,349.445,259.23z"/>
<path style="fill:#EDA3B2;" d="M386.744,154.519c-21.515,0-49.073,1.79-71.384,15.745c-10.509,6.574-18.823,15.09-24.926,25.483
	c-1.621,2.761-4.61,4.429-7.811,4.429h-53.249c-3.201,0-6.19-1.669-7.811-4.429c-6.102-10.392-14.415-18.908-24.925-25.483
	c-22.311-13.956-49.868-15.745-71.384-15.745c-57.714,0-101.811,7.403-118.493,10.727C2.826,166.031,0,169.489,0,173.503v15.157
	c0,4.138,3.009,7.636,7.091,8.313c5.259,0.874,11.521,3,11.521,8.174c1.246,53.328,9.756,89.761,26.778,114.657
	c17.094,25.001,42.766,37.678,76.304,37.678c30.092,0,56.47-8.599,76.282-24.865c16.485-13.535,36.138-39.08,36.138-83.907
	c0-1.594-0.033-3.161-0.081-4.717h0.001c0-12.132,15.025-14.73,21.966-14.73c6.941,0,21.966,2.597,21.966,14.73h0.001
	c-0.048,1.555-0.081,3.123-0.081,4.717c0,44.827,19.652,70.372,36.138,83.907c19.812,16.267,46.19,24.865,76.282,24.865
	c33.538,0,59.211-12.677,76.305-37.678c17.023-24.896,25.532-61.329,26.779-114.657c0-5.174,6.261-7.3,11.52-8.174
	c4.083-0.678,7.091-4.175,7.091-8.313v-15.157c0-4.014-2.826-7.472-6.762-8.257C488.556,161.922,444.459,154.519,386.744,154.519z"
	/>
<path style="fill:#394049;" d="M125.255,178.935c43.238,0,84.442,8.819,84.442,69.775s-43.238,84.356-88.002,84.356
	c-47.153,0-76.353-29.283-78.673-128.489c-0.194-8.283,5.232-15.638,13.2-17.906C73.136,181.858,96.468,178.935,125.255,178.935z"/>
<path style="opacity:0.1;enable-background:new    ;" d="M209.666,245.886c-1.267,58.937-43.878,81.641-87.972,81.641
	c-46.613,0-75.679-28.627-78.579-125.123c-0.069,0.717-0.111,1.439-0.094,2.173c2.32,99.206,31.521,128.489,78.673,128.489
	c44.764,0,88.003-23.4,88.003-84.356C209.697,247.756,209.687,246.815,209.666,245.886z"/>
<path style="fill:#394049;" d="M386.744,178.935c-43.238,0-84.442,8.819-84.442,69.775s43.238,84.356,88.003,84.356
	c47.153,0,76.353-29.283,78.673-128.489c0.194-8.283-5.232-15.638-13.2-17.906C438.864,181.858,415.532,178.935,386.744,178.935z"/>
<path style="opacity:0.1;enable-background:new    ;" d="M302.334,245.886c1.267,58.937,43.878,81.641,87.972,81.641
	c46.613,0,75.678-28.627,78.579-125.123c0.069,0.717,0.111,1.439,0.094,2.173c-2.32,99.206-31.521,128.489-78.673,128.489
	c-44.764,0-88.003-23.4-88.003-84.356C302.303,247.756,302.313,246.815,302.334,245.886z"/>
<g>
	<path style="opacity:0.2;fill:#FFFFFF;enable-background:new    ;" d="M125.255,178.935c-28.786,0-52.119,2.923-69.034,7.737
		c-7.968,2.268-13.394,9.623-13.2,17.906c0.853,36.466,5.342,63.473,13.015,83.063l105.409-105.409
		C150.193,179.683,137.811,178.935,125.255,178.935z"/>
	<path style="opacity:0.2;fill:#FFFFFF;enable-background:new    ;" d="M461.68,189.605L334.084,317.2
		c15.806,11.02,35.855,15.866,56.221,15.866c47.153,0,76.353-29.283,78.673-128.489C469.12,198.563,466.287,193.048,461.68,189.605z
		"/>
</g>
</svg>