<?xml version="1.0" encoding="iso-8859-1"?>
<!-- Uploaded to: SVG Repo, www.svgrepo.com, Generator: SVG Repo Mixer Tools -->
<svg height="800px" width="800px" version="1.1" id="Layer_1" xmlns="http://www.w3.org/2000/svg" xmlns:xlink="http://www.w3.org/1999/xlink" 
	 viewBox="0 0 512 512" xml:space="preserve">
<g>
	<polygon style="fill:#FFD248;" points="235.102,62.694 235.102,99.265 188.082,99.265 62.694,261.224 10.449,261.224 
		172.408,62.694 	"/>
	<polygon style="fill:#FFD248;" points="339.592,62.694 501.551,261.224 449.306,261.224 323.918,99.265 276.898,99.265 
		276.898,62.694 	"/>
</g>
<polygon style="fill:#E6E7E8;" points="282.122,292.571 10.449,292.571 10.449,261.224 62.694,261.224 449.306,261.224 
	501.551,261.224 501.551,292.571 "/>
<path style="fill:#808285;" d="M282.122,292.571H10.449v83.592c0,40.439,32.704,73.143,73.143,73.143h73.143
	c40.439,0,73.143-32.704,73.143-73.143v-36.571h52.245v36.571c0,40.439,32.704,73.143,73.143,73.143h73.143
	c40.439,0,73.143-32.704,73.143-73.143v-83.592H282.122z"/>
<g>
	<path style="fill:#231F20;" d="M509.646,254.621l0.001-0.001l-0.029-0.037c-0.002-0.002-0.004-0.005-0.007-0.008L347.689,56.089
		c-1.984-2.433-4.958-3.844-8.097-3.844h-62.694c-5.771,0-10.449,4.678-10.449,10.449v36.571c0,5.771,4.678,10.449,10.449,10.449
		h41.895l109.209,141.061H83.998l109.209-141.061h41.895c5.771,0,10.449-4.678,10.449-10.449V62.694
		c0-5.771-4.678-10.449-10.449-10.449h-62.694c-3.139,0-6.113,1.412-8.097,3.844L2.39,254.575c-0.002,0.003-0.004,0.005-0.007,0.008
		l-0.029,0.037l0.001,0.001c-1.47,1.8-2.354,4.098-2.354,6.604v31.347v83.592c0,46.093,37.499,83.592,83.592,83.592h73.143
		c46.093,0,83.592-37.499,83.592-83.592v-26.122h31.347v26.122c0,46.093,37.499,83.592,83.592,83.592h73.143
		c46.093,0,83.592-37.499,83.592-83.592v-83.592v-31.347C512,258.719,511.116,256.421,509.646,254.621z M20.898,271.673h470.204
		v10.449H20.898V271.673z M332.18,92.868c-1.979-2.556-5.029-4.052-8.262-4.052h-36.571V73.143h47.284l144.911,177.633H454.43
		L332.18,92.868z M177.369,73.143h47.284v15.673h-36.571c-3.233,0-6.283,1.496-8.262,4.052L57.569,250.775H32.458L177.369,73.143z
		 M428.408,438.857h-73.143c-34.569,0-62.694-28.124-62.694-62.694v-36.571v-20.898h-20.898v10.449h-31.347v-10.449h-20.898v20.898
		v36.571c0,34.569-28.124,62.694-62.694,62.694H83.592c-34.569,0-62.694-28.124-62.694-62.694V303.02h470.204v73.143
		C491.102,410.733,462.978,438.857,428.408,438.857z"/>
	<path style="fill:#231F20;" d="M67.918,370.939H47.02c0,23.046,18.75,41.796,41.796,41.796v-20.898
		C77.293,391.837,67.918,382.462,67.918,370.939z"/>
	<path style="fill:#231F20;" d="M339.592,370.939h-20.898c0,23.046,18.75,41.796,41.796,41.796v-20.898
		C348.967,391.837,339.592,382.462,339.592,370.939z"/>
</g>
</svg>