<?xml version="1.0" encoding="iso-8859-1"?>
<!-- Uploaded to: SVG Repo, www.svgrepo.com, Generator: SVG Repo Mixer Tools -->
<svg version="1.1" id="Layer_1" xmlns="http://www.w3.org/2000/svg" xmlns:xlink="http://www.w3.org/1999/xlink" 
	 viewBox="0 0 512 512" xml:space="preserve">
<g>
	<path style="fill:#C2DCE0;" d="M218.744,297.676l-4.071-0.892c-7.633-1.673-12.464-9.217-10.792-16.85l6.177-28.184
		c1.673-7.633,9.217-12.464,16.85-10.792l4.071,0.892c7.633,1.673,12.465,9.217,10.792,16.85l-6.176,28.184
		C233.921,294.517,226.377,299.349,218.744,297.676z"/>
	<path style="fill:#C2DCE0;" d="M293.255,297.676l4.071-0.892c7.633-1.673,12.465-9.217,10.793-16.85l-6.177-28.184
		c-1.673-7.633-9.217-12.464-16.85-10.792l-4.071,0.892c-7.633,1.673-12.464,9.217-10.792,16.85l6.176,28.184
		C278.079,294.517,285.623,299.349,293.255,297.676z"/>
</g>
<path style="opacity:0.1;enable-background:new    ;" d="M308.119,279.934l-6.177-28.184c-1.673-7.633-9.217-12.464-16.85-10.792
	l-4.071,0.892c-1.132,0.248-2.193,0.639-3.191,1.127c1.455,20.77,6.081,39.233,13.182,54.99c0.744-0.042,1.493-0.126,2.244-0.29
	l4.071-0.892C304.96,295.112,309.792,287.568,308.119,279.934z"/>
<path style="opacity:0.1;enable-background:new    ;" d="M203.881,279.934l6.176-28.184c1.673-7.633,9.217-12.464,16.85-10.792
	l4.071,0.892c1.132,0.248,2.193,0.639,3.191,1.127c-1.455,20.77-6.081,39.233-13.182,54.99c-0.744-0.042-1.493-0.126-2.244-0.29
	l-4.071-0.892C207.039,295.112,202.207,287.568,203.881,279.934z"/>
<path style="fill:#9D4D59;" d="M221.549,223.066c0-51.137-20.07-64.487-100.562-64.487S20.426,185.604,20.426,241.142
	s45.023,112.279,100.562,112.279S221.549,303.227,221.549,223.066z"/>
<path style="opacity:0.2;enable-background:new    ;" d="M120.988,158.579c80.491,0,100.562,13.35,100.562,64.487
	c0,3.066-0.074,6.082-0.203,9.058c-2.262-44.29-24.417-56.179-100.359-56.179c-75.394,0-97.777,23.711-100.309,72.356
	c-0.163-2.385-0.252-4.773-0.252-7.158C20.426,185.604,40.496,158.579,120.988,158.579z"/>
<path style="opacity:0.1;fill:#FFFFFF;enable-background:new    ;" d="M120.988,158.58c-80.491,0-100.562,27.025-100.562,82.564
	c0,18.152,4.811,36.431,13.225,52.817l133.056-133.056C154.232,159.262,139.153,158.58,120.988,158.58z"/>
<g>
	<path style="fill:#A27B5A;" d="M298.461,230.126h-15.78c0-8.114-18.323-10.846-26.681-10.846c-8.358,0-26.681,2.731-26.681,10.846
		h-15.78c0-6.042,2.52-17.056,19.397-22.94c7.795-2.718,17.026-3.686,23.064-3.686s15.269,0.968,23.064,3.686
		C295.941,213.07,298.461,224.083,298.461,230.126z"/>
	<rect x="120.981" y="150.691" style="fill:#A27B5A;" width="270.03" height="15.78"/>
</g>
<path style="opacity:0.15;enable-background:new    ;" d="M381.018,150.688c-44.42,0-68.972,4.151-84.743,14.327
	c-0.717,0.463-1.436,0.946-2.152,1.453h96.889V150.84C387.774,150.742,384.45,150.688,381.018,150.688z"/>
<path style="opacity:0.15;enable-background:new    ;" d="M130.981,150.688c44.42,0,68.972,4.151,84.743,14.327
	c0.717,0.463,1.436,0.946,2.152,1.453h-96.889V150.84C124.226,150.742,127.55,150.688,130.981,150.688z"/>
<path style="fill:#A27B5A;" d="M120.986,361.312c-28.573,0-55.949-13.514-77.086-38.053c-19.934-23.142-31.366-53.072-31.366-82.116
	c0-32.743,6.995-53.699,22.681-67.949c16.901-15.354,44.155-22.505,85.77-22.505c44.42,0,68.971,4.151,84.743,14.327
	c20.892,13.48,23.709,36.909,23.709,58.05c0,40.23-10.789,74.876-31.202,100.19C178.449,347.797,151.014,361.312,120.986,361.312z
	 M120.986,166.469c-37.455,0-61.337,5.848-75.159,18.405c-12.112,11.003-17.512,28.356-17.512,56.269
	c0,25.32,10.038,51.497,27.542,71.818c18.091,21.004,41.222,32.571,65.13,32.571c25.161,0,48.234-11.428,64.966-32.18
	c18.126-22.478,27.706-53.699,27.706-90.286c0-24.259-4.776-37.236-16.484-44.79C184.348,170,161.564,166.469,120.986,166.469z"/>
<path style="fill:#9D4D59;" d="M290.451,223.066c0-51.137,20.07-64.487,100.562-64.487s100.562,27.025,100.562,82.564
	s-45.023,112.279-100.562,112.279S290.451,303.227,290.451,223.066z"/>
<path style="opacity:0.2;enable-background:new    ;" d="M391.012,158.579c-80.491,0-100.562,13.35-100.562,64.487
	c0,3.066,0.074,6.082,0.203,9.058c2.263-44.29,24.417-56.179,100.359-56.179c75.394,0,97.777,23.711,100.309,72.356
	c0.163-2.385,0.252-4.773,0.252-7.158C491.574,185.604,471.504,158.579,391.012,158.579z"/>
<path style="opacity:0.1;fill:#FFFFFF;enable-background:new    ;" d="M475.395,183.002L329.616,328.781
	c16.986,15.936,38.277,24.64,61.396,24.64c55.539,0,100.562-56.74,100.562-112.279C491.574,215.934,487.438,196.601,475.395,183.002
	z"/>
<path style="fill:#A27B5A;" d="M391.012,361.312c-30.028,0-57.463-13.515-77.25-38.055c-20.412-25.315-31.202-59.96-31.202-100.19
	c0-37.673,11.984-50.485,23.709-58.05c15.772-10.176,40.324-14.327,84.743-14.327c41.615,0,68.869,7.151,85.77,22.505
	c15.687,14.251,22.681,35.207,22.681,67.949c0,29.044-11.432,58.974-31.366,82.116C446.962,347.797,419.585,361.312,391.012,361.312
	z M391.012,166.469c-40.576,0-63.362,3.532-76.188,11.807c-11.709,7.554-16.484,20.531-16.484,44.79
	c0,36.587,9.581,67.807,27.706,90.286c16.732,20.752,39.805,32.18,64.966,32.18c23.908,0,47.038-11.568,65.13-32.571
	c17.503-20.321,27.542-46.497,27.542-71.818c0-27.913-5.401-45.266-17.512-56.269C452.35,172.317,428.467,166.469,391.012,166.469z"
	/>
<g>
	<path style="fill:#E9D286;" d="M32.295,219.28H7.89c-4.357,0-7.89-3.533-7.89-7.89s3.533-7.89,7.89-7.89h24.405
		c4.357,0,7.89,3.533,7.89,7.89S36.652,219.28,32.295,219.28z"/>
	<path style="fill:#E9D286;" d="M504.11,219.28h-24.405c-4.357,0-7.89-3.533-7.89-7.89s3.533-7.89,7.89-7.89h24.405
		c4.357,0,7.89,3.533,7.89,7.89S508.467,219.28,504.11,219.28z"/>
</g>
</svg>