<svg xmlns="http://www.w3.org/2000/svg" version="1.1" xmlns:xlink="http://www.w3.org/1999/xlink" xmlns:svgjs="http://svgjs.dev/svgjs" width="1000" height="1000" viewBox="0 0 1000 1000"><rect width="1000" height="1000" fill="#ffffff"></rect><g transform="matrix(0.7,0,0,0.7,149.57575757575756,445.6354445928171)"><svg viewBox="0 0 396 62" data-background-color="#c9efc7" preserveAspectRatio="xMidYMid meet" height="156" width="1000" xmlns="http://www.w3.org/2000/svg" xmlns:xlink="http://www.w3.org/1999/xlink"><g id="tight-bounds" transform="matrix(1,0,0,1,0.2400000000000091,-0.13367733291812556)"><svg viewBox="0 0 395.52 62.26735466583622" height="62.26735466583622" width="395.52"><g><svg viewBox="0 0 596.1471171555554 93.8524068996278" height="62.26735466583622" width="395.52"><g transform="matrix(1,0,0,1,198.64951715555551,0)"><svg viewBox="0 0 397.4975999999999 93.8524068996278" height="93.8524068996278" width="397.4975999999999"><g id="textblocktransform"><svg viewBox="0 0 397.4975999999999 93.8524068996278" height="93.8524068996278" width="397.4975999999999" id="textblock"><g><rect width="397.4975999999999" height="5.504382990222222" x="0" y="67.52125783703703" fill="#000000" opacity="1" stroke-width="0" stroke="transparent" fill-opacity="1" class="rect-i$-0" data-fill-palette-color="primary" rx="1%" id="i$-0" data-palette-color="#454545"></rect></g><g transform="matrix(1,0,0,1,0.9887999999999693,0)"><svg viewBox="0 0 395.52 61.03703703703703" height="61.03703703703703" width="395.52"><g transform="matrix(1,0,0,1,0,0)"><svg width="395.52" viewBox="1.55 -43.35 283.46999999999997 43.75" height="61.03703703703703" data-palette-color="#454545"><path d="M11.9 0.4Q7.2 0.4 4.38-2.55 1.55-5.5 1.55-10.65L1.55-10.65 1.55-30.45Q1.55-36.85 4.1-40.1 6.65-43.35 12.1-43.35L12.1-43.35Q16.85-43.35 19.75-40.75 22.65-38.15 22.65-33.25L22.65-33.25 22.65-25.85 14.1-25.85 14.1-32.2Q14.1-34.05 13.65-34.75 13.2-35.45 12.1-35.45L12.1-35.45Q10.95-35.45 10.53-34.65 10.1-33.85 10.1-32.3L10.1-32.3 10.1-10.75Q10.1-9.05 10.6-8.28 11.1-7.5 12.1-7.5L12.1-7.5Q14.1-7.5 14.1-10.75L14.1-10.75 14.1-18.5 22.75-18.5 22.75-10.4Q22.75 0.4 11.9 0.4L11.9 0.4ZM34.15 0L25.6 0 25.6-42.95 34.15-42.95 34.15-27.6 38.2-27.6 38.2-42.95 46.75-42.95 46.75 0 38.2 0 38.2-19.5 34.15-19.5 34.15 0ZM57.75 0L49.4 0 53.55-42.95 68.1-42.95 72.2 0 64.05 0 63.45-6.95 58.25-6.95 57.75 0ZM60.5-35.65L58.9-13.8 62.8-13.8 60.9-35.65 60.5-35.65ZM84.99 0.4Q79.14 0.4 76.54-2.5 73.94-5.4 73.94-11.85L73.94-11.85 73.94-16.05 82.39-16.05 82.39-10.7Q82.39-7.5 84.44-7.5L84.44-7.5Q85.59-7.5 86.04-8.18 86.49-8.85 86.49-10.45L86.49-10.45Q86.49-12.55 85.99-13.93 85.49-15.3 84.72-16.23 83.94-17.15 81.94-19.1L81.94-19.1 78.24-22.8Q73.94-27 73.94-32.1L73.94-32.1Q73.94-37.6 76.47-40.48 78.99-43.35 83.84-43.35L83.84-43.35Q89.64-43.35 92.19-40.28 94.74-37.2 94.74-30.65L94.74-30.65 85.99-30.65 85.94-33.6Q85.94-34.45 85.47-34.95 84.99-35.45 84.14-35.45L84.14-35.45Q83.14-35.45 82.64-34.9 82.14-34.35 82.14-33.4L82.14-33.4Q82.14-31.3 84.54-29.05L84.54-29.05 89.54-24.25Q91.29-22.55 92.44-21.03 93.59-19.5 94.29-17.43 94.99-15.35 94.99-12.5L94.99-12.5Q94.99-6.15 92.67-2.88 90.34 0.4 84.99 0.4L84.99 0.4ZM105.59 0L97.84 0 97.84-42.95 110.94-42.95 114.54-16.75 118.14-42.95 131.34-42.95 131.34 0 123.49 0 123.49-30.95 118.54 0 110.84 0 105.59-30.95 105.59 0ZM142.34 0L133.99 0 138.14-42.95 152.69-42.95 156.79 0 148.64 0 148.04-6.95 142.84-6.95 142.34 0ZM145.09-35.65L143.49-13.8 147.39-13.8 145.49-35.65 145.09-35.65ZM171.08 0L171.08-42.95 182.73-42.95Q187.43-42.95 189.56-40.65 191.68-38.35 191.68-33.15L191.68-33.15 191.68-31.25Q191.68-25.1 187.28-23.9L187.28-23.9Q189.98-23.2 191.08-20.65 192.18-18.1 192.18-13.9L192.18-13.9Q192.18-7.05 190.13-3.53 188.08 0 182.73 0L182.73 0 171.08 0ZM179.48-26.8L181.23-26.8Q182.33-26.8 182.73-27.63 183.13-28.45 183.13-29.95L183.13-29.95 183.13-34.25Q183.13-36.35 181.28-36.35L181.28-36.35 179.48-36.35 179.48-26.8ZM180.33-7.55Q183.68-7.55 183.68-10.75L183.68-10.75 183.68-16.1Q183.68-18.05 183.11-19.05 182.53-20.05 181.08-20.05L181.08-20.05 179.48-20.05 179.48-7.6 180.33-7.55ZM202.23 0L193.88 0 198.03-42.95 212.58-42.95 216.68 0 208.53 0 207.93-6.95 202.73-6.95 202.23 0ZM204.98-35.65L203.38-13.8 207.28-13.8 205.38-35.65 204.98-35.65ZM236.63 0L218.18 0 218.18-7.8 227.98-35.05 219.13-35.05 219.13-42.95 237.08-42.95 237.08-35.45 227.03-7.9 236.63-7.9 236.63 0ZM246.97 0L238.63 0 242.78-42.95 257.32-42.95 261.43 0 253.28 0 252.68-6.95 247.47-6.95 246.97 0ZM249.72-35.65L248.13-13.8 252.03-13.8 250.13-35.65 249.72-35.65ZM264.02 0L264.02-42.95 277.22-42.95Q280.37-42.95 282.1-41.53 283.82-40.1 284.42-37.52 285.02-34.95 285.02-30.95L285.02-30.95Q285.02-27.3 284.07-25.25 283.12-23.2 280.77-22.4L280.77-22.4Q282.72-22 283.6-20.45 284.47-18.9 284.47-16.25L284.47-16.25 284.37 0 275.97 0 275.97-16.8Q275.97-18.6 275.27-19.1 274.57-19.6 272.72-19.6L272.72-19.6 272.72 0 264.02 0ZM272.77-27.05L274.82-27.05Q276.62-27.05 276.62-30.95L276.62-30.95Q276.62-32.65 276.47-33.5 276.32-34.35 275.92-34.68 275.52-35 274.77-35L274.77-35 272.77-35 272.77-27.05Z" opacity="1" transform="matrix(1,0,0,1,0,0)" fill="#000000" class="undefined-text-0" data-fill-palette-color="primary" id="text-0"></path></svg></g></svg></g><g transform="matrix(1,0,0,1,0,79.50986162725926)"><svg viewBox="0 0 232.20979200000002 14.342545272368534" height="14.342545272368534" width="232.20979200000002"><g transform="matrix(1,0,0,1,0,0)"><svg width="232.20979200000002" viewBox="3.1 -35.5 582.81 36" height="14.342545272368534" data-palette-color="#454545"><path d="M29.3 0L4.4 0Q3.9 0 3.5-0.38 3.1-0.75 3.1-1.3L3.1-1.3 3.1-33.7Q3.1-34.25 3.5-34.63 3.9-35 4.4-35L4.4-35 28.9-35Q29.45-35 29.85-34.63 30.25-34.25 30.25-33.7L30.25-33.7 30.25-27.8Q30.25-27.3 29.85-26.9 29.45-26.5 28.9-26.5L28.9-26.5 13.45-26.5 13.45-21.55 27.8-21.55Q28.35-21.55 28.75-21.18 29.15-20.8 29.15-20.25L29.15-20.25 29.15-14.85Q29.15-14.3 28.75-13.93 28.35-13.55 27.8-13.55L27.8-13.55 13.45-13.55 13.45-8.5 29.3-8.5Q29.85-8.5 30.25-8.1 30.65-7.7 30.65-7.15L30.65-7.15 30.65-1.3Q30.65-0.75 30.25-0.38 29.85 0 29.3 0L29.3 0ZM44.6 0L37.05 0Q36.55 0 36.15-0.38 35.75-0.75 35.75-1.3L35.75-1.3 35.75-33.7Q35.75-34.25 36.15-34.63 36.55-35 37.05-35L37.05-35 43.7-35Q44.6-35 45-34.6 45.4-34.2 45.55-33.95L45.55-33.95 55.85-17.4 55.85-33.7Q55.85-34.25 56.25-34.63 56.65-35 57.2-35L57.2-35 64.7-35Q65.25-35 65.62-34.63 66-34.25 66-33.7L66-33.7 66-1.3Q66-0.75 65.62-0.38 65.25 0 64.7 0L64.7 0 58.1 0Q57.2 0 56.77-0.43 56.35-0.85 56.2-1.05L56.2-1.05 45.9-16.7 45.9-1.3Q45.9-0.75 45.52-0.38 45.15 0 44.6 0L44.6 0ZM81.7 0L73.55 0Q73.05 0 72.65-0.35 72.25-0.7 72.25-1.3L72.25-1.3 72.25-33.7Q72.25-34.25 72.65-34.63 73.05-35 73.55-35L73.55-35 81.7-35Q82.25-35 82.62-34.63 83-34.25 83-33.7L83-33.7 83-22.4 93.2-22.4 93.2-33.7Q93.2-34.25 93.6-34.63 94-35 94.5-35L94.5-35 102.65-35Q103.2-35 103.57-34.63 103.95-34.25 103.95-33.7L103.95-33.7 103.95-1.3Q103.95-0.75 103.57-0.38 103.2 0 102.65 0L102.65 0 94.5 0Q94 0 93.6-0.38 93.2-0.75 93.2-1.3L93.2-1.3 93.2-12.9 83-12.9 83-1.3Q83-0.75 82.62-0.38 82.25 0 81.7 0L81.7 0ZM116.09 0L108.39 0Q107.94 0 107.64-0.33 107.34-0.65 107.34-1.1L107.34-1.1Q107.34-1.3 107.39-1.45L107.39-1.45 118.79-33.45Q118.99-34 119.49-34.5 119.99-35 120.89-35L120.89-35 130.04-35Q130.99-35 131.49-34.5 131.99-34 132.14-33.45L132.14-33.45 143.59-1.45Q143.64-1.3 143.64-1.1L143.64-1.1Q143.64-0.65 143.32-0.33 142.99 0 142.54 0L142.54 0 134.84 0Q133.99 0 133.59-0.4 133.19-0.8 133.04-1.15L133.04-1.15 131.49-5.35 119.44-5.35 117.89-1.15Q117.74-0.8 117.37-0.4 116.99 0 116.09 0L116.09 0ZM125.44-25.05L121.74-13.8 129.19-13.8 125.44-25.05ZM155.79 0L148.24 0Q147.74 0 147.34-0.38 146.94-0.75 146.94-1.3L146.94-1.3 146.94-33.7Q146.94-34.25 147.34-34.63 147.74-35 148.24-35L148.24-35 154.89-35Q155.79-35 156.19-34.6 156.59-34.2 156.74-33.95L156.74-33.95 167.04-17.4 167.04-33.7Q167.04-34.25 167.44-34.63 167.84-35 168.39-35L168.39-35 175.89-35Q176.44-35 176.82-34.63 177.19-34.25 177.19-33.7L177.19-33.7 177.19-1.3Q177.19-0.75 176.82-0.38 176.44 0 175.89 0L175.89 0 169.29 0Q168.39 0 167.97-0.43 167.54-0.85 167.39-1.05L167.39-1.05 157.09-16.7 157.09-1.3Q157.09-0.75 156.72-0.38 156.34 0 155.79 0L155.79 0ZM198.54 0.5L198.54 0.5Q193.79 0.5 190.24-0.98 186.69-2.45 184.66-5.45 182.64-8.45 182.44-13.05L182.44-13.05Q182.39-15.1 182.39-17.45 182.39-19.8 182.44-21.95L182.44-21.95Q182.64-26.45 184.71-29.48 186.79-32.5 190.36-34 193.94-35.5 198.54-35.5L198.54-35.5Q201.84-35.5 204.71-34.73 207.59-33.95 209.84-32.38 212.09-30.8 213.39-28.5 214.69-26.2 214.74-23.1L214.74-23.1Q214.74-22.65 214.41-22.33 214.09-22 213.64-22L213.64-22 205.19-22Q204.44-22 204.09-22.3 203.74-22.6 203.49-23.35L203.49-23.35Q202.84-25.5 201.59-26.25 200.34-27 198.54-27L198.54-27Q196.34-27 195.04-25.83 193.74-24.65 193.64-21.7L193.64-21.7Q193.49-17.6 193.64-13.3L193.64-13.3Q193.74-10.35 195.04-9.18 196.34-8 198.54-8L198.54-8Q200.34-8 201.61-8.8 202.89-9.6 203.49-11.65L203.49-11.65Q203.69-12.45 204.06-12.73 204.44-13 205.19-13L205.19-13 213.64-13Q214.09-13 214.41-12.7 214.74-12.4 214.74-11.95L214.74-11.95Q214.69-8.85 213.39-6.53 212.09-4.2 209.84-2.63 207.59-1.05 204.71-0.28 201.84 0.5 198.54 0.5ZM245.54 0L220.64 0Q220.14 0 219.74-0.38 219.34-0.75 219.34-1.3L219.34-1.3 219.34-33.7Q219.34-34.25 219.74-34.63 220.14-35 220.64-35L220.64-35 245.14-35Q245.69-35 246.09-34.63 246.49-34.25 246.49-33.7L246.49-33.7 246.49-27.8Q246.49-27.3 246.09-26.9 245.69-26.5 245.14-26.5L245.14-26.5 229.69-26.5 229.69-21.55 244.04-21.55Q244.59-21.55 244.99-21.18 245.39-20.8 245.39-20.25L245.39-20.25 245.39-14.85Q245.39-14.3 244.99-13.93 244.59-13.55 244.04-13.55L244.04-13.55 229.69-13.55 229.69-8.5 245.54-8.5Q246.09-8.5 246.49-8.1 246.89-7.7 246.89-7.15L246.89-7.15 246.89-1.3Q246.89-0.75 246.49-0.38 246.09 0 245.54 0L245.54 0ZM280.33 0L272.18 0Q271.63 0 271.26-0.38 270.88-0.75 270.88-1.3L270.88-1.3 270.88-11.6 259.48-33.45Q259.43-33.55 259.38-33.68 259.33-33.8 259.33-33.9L259.33-33.9Q259.33-34.35 259.66-34.68 259.98-35 260.43-35L260.43-35 268.23-35Q269.13-35 269.58-34.55 270.03-34.1 270.18-33.85L270.18-33.85 276.28-22.35 282.38-33.85Q282.48-34.1 282.96-34.55 283.43-35 284.28-35L284.28-35 292.13-35Q292.53-35 292.86-34.68 293.18-34.35 293.18-33.9L293.18-33.9Q293.18-33.8 293.16-33.68 293.13-33.55 293.08-33.45L293.08-33.45 281.63-11.6 281.63-1.3Q281.63-0.75 281.26-0.38 280.88 0 280.33 0L280.33 0ZM311.83 0.5L311.83 0.5Q307.03 0.5 303.5-1 299.98-2.5 297.95-5.53 295.93-8.55 295.78-13.05L295.78-13.05Q295.73-15.15 295.73-17.38 295.73-19.6 295.78-21.8L295.78-21.8Q295.93-26.25 297.95-29.3 299.98-32.35 303.53-33.93 307.08-35.5 311.83-35.5L311.83-35.5Q316.53-35.5 320.08-33.93 323.63-32.35 325.68-29.3 327.73-26.25 327.83-21.8L327.83-21.8Q327.93-19.6 327.93-17.38 327.93-15.15 327.83-13.05L327.83-13.05Q327.68-8.55 325.65-5.53 323.63-2.5 320.1-1 316.58 0.5 311.83 0.5ZM311.83-8L311.83-8Q313.93-8 315.28-9.28 316.63-10.55 316.68-13.35L316.68-13.35Q316.78-15.5 316.78-17.53 316.78-19.55 316.68-21.65L316.68-21.65Q316.63-23.5 316-24.7 315.38-25.9 314.3-26.45 313.23-27 311.83-27L311.83-27Q310.43-27 309.33-26.45 308.23-25.9 307.6-24.7 306.98-23.5 306.93-21.65L306.93-21.65Q306.88-19.55 306.88-17.53 306.88-15.5 306.93-13.35L306.93-13.35Q307.03-10.55 308.35-9.28 309.68-8 311.83-8ZM348.43 0.5L348.43 0.5Q343.78 0.5 340.25-0.95 336.73-2.4 334.75-5.48 332.78-8.55 332.78-13.25L332.78-13.25 332.78-33.7Q332.78-34.25 333.18-34.63 333.58-35 334.08-35L334.08-35 342.23-35Q342.78-35 343.15-34.63 343.53-34.25 343.53-33.7L343.53-33.7 343.53-13.4Q343.53-10.85 344.78-9.55 346.03-8.25 348.38-8.25L348.38-8.25Q350.73-8.25 351.95-9.55 353.18-10.85 353.18-13.4L353.18-13.4 353.18-33.7Q353.18-34.25 353.58-34.63 353.98-35 354.53-35L354.53-35 362.63-35Q363.18-35 363.55-34.63 363.93-34.25 363.93-33.7L363.93-33.7 363.93-13.25Q363.93-8.55 361.98-5.48 360.03-2.4 356.53-0.95 353.03 0.5 348.43 0.5ZM379.32 0L371.17 0Q370.67 0 370.27-0.38 369.87-0.75 369.87-1.3L369.87-1.3 369.87-33.7Q369.87-34.25 370.27-34.63 370.67-35 371.17-35L371.17-35 385.42-35Q392.22-35 396.1-31.9 399.97-28.8 399.97-23.25L399.97-23.25Q399.97-19.75 398.37-17.3 396.77-14.85 394.17-13.45L394.17-13.45 400.67-1.65Q400.82-1.35 400.82-1.1L400.82-1.1Q400.82-0.65 400.52-0.33 400.22 0 399.77 0L399.77 0 391.32 0Q390.37 0 389.87-0.48 389.37-0.95 389.22-1.35L389.22-1.35 384.22-11.65 380.62-11.65 380.62-1.3Q380.62-0.75 380.25-0.38 379.87 0 379.32 0L379.32 0ZM380.62-26.9L380.62-19.9 385.37-19.9Q387.12-19.9 387.97-20.88 388.82-21.85 388.82-23.3L388.82-23.3Q388.82-24.8 388-25.85 387.17-26.9 385.37-26.9L385.37-26.9 380.62-26.9ZM434.62 0L425.12 0Q424.17 0 423.64-0.5 423.12-1 422.97-1.55L422.97-1.55 413.12-33.55Q413.07-33.75 413.07-33.9L413.07-33.9Q413.07-34.35 413.39-34.68 413.72-35 414.17-35L414.17-35 421.92-35Q422.82-35 423.32-34.5 423.82-34 423.97-33.5L423.97-33.5 429.87-12.65 435.77-33.5Q435.92-34 436.42-34.5 436.92-35 437.82-35L437.82-35 445.57-35Q446.02-35 446.32-34.68 446.62-34.35 446.62-33.9L446.62-33.9Q446.62-33.75 446.57-33.55L446.57-33.55 436.77-1.55Q436.62-1 436.09-0.5 435.57 0 434.62 0L434.62 0ZM460.52 0L452.02 0Q451.52 0 451.12-0.38 450.72-0.75 450.72-1.3L450.72-1.3 450.72-33.7Q450.72-34.25 451.12-34.63 451.52-35 452.02-35L452.02-35 460.52-35Q461.07-35 461.44-34.63 461.82-34.25 461.82-33.7L461.82-33.7 461.82-1.3Q461.82-0.75 461.44-0.38 461.07 0 460.52 0L460.52 0ZM481.86 0.5L481.86 0.5Q476.61 0.5 473.14-0.98 469.66-2.45 467.94-4.83 466.21-7.2 466.11-9.85L466.11-9.85Q466.11-10.3 466.41-10.6 466.71-10.9 467.16-10.9L467.16-10.9 475.11-10.9Q475.81-10.9 476.21-10.68 476.61-10.45 477.06-10.05L477.06-10.05Q477.51-9.5 478.11-9.03 478.71-8.55 479.66-8.28 480.61-8 481.86-8L481.86-8Q484.16-8 485.41-8.63 486.66-9.25 486.66-10.35L486.66-10.35Q486.66-11.2 485.99-11.75 485.31-12.3 483.71-12.75 482.11-13.2 479.36-13.7L479.36-13.7Q475.51-14.35 472.71-15.63 469.91-16.9 468.44-19.07 466.96-21.25 466.96-24.45L466.96-24.45Q466.96-27.7 468.79-30.2 470.61-32.7 473.89-34.1 477.16-35.5 481.51-35.5L481.51-35.5Q485.11-35.5 487.89-34.55 490.66-33.6 492.56-32.08 494.46-30.55 495.46-28.8 496.46-27.05 496.51-25.45L496.51-25.45Q496.51-25 496.19-24.68 495.86-24.35 495.46-24.35L495.46-24.35 487.11-24.35Q486.51-24.35 486.11-24.55 485.71-24.75 485.31-25.2L485.31-25.2Q485.06-25.9 484.06-26.45 483.06-27 481.51-27L481.51-27Q479.81-27 478.91-26.43 478.01-25.85 478.01-24.75L478.01-24.75Q478.01-24 478.56-23.45 479.11-22.9 480.51-22.48 481.91-22.05 484.41-21.55L484.41-21.55Q489.16-20.85 492.09-19.55 495.01-18.25 496.36-16.15 497.71-14.05 497.71-10.9L497.71-10.9Q497.71-7.35 495.66-4.8 493.61-2.25 490.04-0.88 486.46 0.5 481.86 0.5ZM511.81 0L503.31 0Q502.81 0 502.41-0.38 502.01-0.75 502.01-1.3L502.01-1.3 502.01-33.7Q502.01-34.25 502.41-34.63 502.81-35 503.31-35L503.31-35 511.81-35Q512.36-35 512.74-34.63 513.11-34.25 513.11-33.7L513.11-33.7 513.11-1.3Q513.11-0.75 512.74-0.38 512.36 0 511.81 0L511.81 0ZM534.41 0.5L534.41 0.5Q529.61 0.5 526.08-1 522.56-2.5 520.53-5.53 518.51-8.55 518.36-13.05L518.36-13.05Q518.31-15.15 518.31-17.38 518.31-19.6 518.36-21.8L518.36-21.8Q518.51-26.25 520.53-29.3 522.56-32.35 526.11-33.93 529.66-35.5 534.41-35.5L534.41-35.5Q539.11-35.5 542.66-33.93 546.21-32.35 548.26-29.3 550.31-26.25 550.41-21.8L550.41-21.8Q550.51-19.6 550.51-17.38 550.51-15.15 550.41-13.05L550.41-13.05Q550.26-8.55 548.23-5.53 546.21-2.5 542.68-1 539.16 0.5 534.41 0.5ZM534.41-8L534.41-8Q536.51-8 537.86-9.28 539.21-10.55 539.26-13.35L539.26-13.35Q539.36-15.5 539.36-17.53 539.36-19.55 539.26-21.65L539.26-21.65Q539.21-23.5 538.58-24.7 537.96-25.9 536.88-26.45 535.81-27 534.41-27L534.41-27Q533.01-27 531.91-26.45 530.81-25.9 530.18-24.7 529.56-23.5 529.51-21.65L529.51-21.65Q529.46-19.55 529.46-17.53 529.46-15.5 529.51-13.35L529.51-13.35Q529.61-10.55 530.93-9.28 532.26-8 534.41-8ZM564.51 0L556.96 0Q556.46 0 556.06-0.38 555.66-0.75 555.66-1.3L555.66-1.3 555.66-33.7Q555.66-34.25 556.06-34.63 556.46-35 556.96-35L556.96-35 563.61-35Q564.51-35 564.91-34.6 565.31-34.2 565.46-33.95L565.46-33.95 575.76-17.4 575.76-33.7Q575.76-34.25 576.16-34.63 576.56-35 577.11-35L577.11-35 584.61-35Q585.16-35 585.53-34.63 585.91-34.25 585.91-33.7L585.91-33.7 585.91-1.3Q585.91-0.75 585.53-0.38 585.16 0 584.61 0L584.61 0 578.01 0Q577.11 0 576.68-0.43 576.26-0.85 576.11-1.05L576.11-1.05 565.81-16.7 565.81-1.3Q565.81-0.75 565.43-0.38 565.06 0 564.51 0L564.51 0Z" opacity="1" transform="matrix(1,0,0,1,0,0)" fill="#000000" class="undefined-text-1" data-fill-palette-color="secondary" id="text-1"></path></svg></g></svg></g></svg></g></svg></g><g transform="matrix(1,0,0,1,0,1.1522537802714865)"><svg viewBox="0 0 184.24013759999997 91.54789933908482" height="91.54789933908482" width="184.24013759999997"><g><svg xmlns="http://www.w3.org/2000/svg" xmlns:xlink="http://www.w3.org/1999/xlink" xml:space="preserve" version="1.1" style="shape-rendering:geometricPrecision;text-rendering:geometricPrecision;image-rendering:optimizeQuality;" viewBox="20.871944380181542 261.8478696575334 958.256111239637 476.1521303424666" x="0" y="0" fill-rule="evenodd" clip-rule="evenodd" height="91.54789933908482" width="184.24013759999997" class="icon-icon-0" data-fill-palette-color="accent" id="icon-0"><g fill="#454545" data-fill-palette-color="accent"><path class="" d="M894 297c6 26 22 45 48 56 3-2 5-5 8-7-4 50-4 93-4 131 1 124 2 183-174 238-81-8-135-36-165-95-30-61-37-154-22-290 57-29 119-41 182-45 46-2 92 0 138 5-4 2-7 4-11 7z m-863-22c66-9 135-16 203-12 68 3 135 17 197 49 3 2 5 4 6 7 41-12 83-12 126 2l0 0 0 0c0-3 2-7 6-9 62-32 129-46 197-49 68-4 137 3 203 12l0 0c6 1 11 6 10 13-11 76-11 138-10 189 1 136 1 200-193 261l0 0c-1 0-3 0-4 0-90-9-151-41-185-108-23-45-33-106-32-186-37-49-74-50-110-3 1 82-9 143-32 189-34 67-95 99-185 108-1 0-3 0-4 0l0 0c-194-61-194-125-193-261 1-51 1-113-10-189-1-7 4-12 10-13l0 0z m78 22c-6 26-22 45-48 56-4-3-8-8-11-12 4 52 4 97 4 136-1 124-2 183 174 238 81-8 135-36 165-95 30-61 37-154 22-290-57-29-119-41-182-45-45-2-90 0-135 5 4 2 7 4 11 7z" fill="#000000" data-fill-palette-color="accent"></path></g></svg></g></svg></g></svg></g><defs></defs></svg><rect width="395.52" height="62.26735466583622" fill="none" stroke="none" visibility="hidden"></rect></g></svg></g></svg>